<mxfile host="app.diagrams.net" agent="Mozilla/5.0 (X11; Linux x86_64) AppleWebKit/537.36 (KHTML, like Gecko) Chrome/131.0.0.0 Safari/537.36" version="25.0.3">
  <diagram name="Page-1" id="laetl-Wr8Zt0gv551SJ-">
    <mxGraphModel dx="1197" dy="600" grid="1" gridSize="10" guides="1" tooltips="1" connect="1" arrows="1" fold="1" page="1" pageScale="1" pageWidth="850" pageHeight="1100" math="0" shadow="0">
      <root>
        <mxCell id="0" />
        <mxCell id="1" parent="0" />
        <mxCell id="3bP-I4FCFR9JuNEKeRnN-2" value="&lt;i&gt;Registration&lt;/i&gt;" style="ellipse;whiteSpace=wrap;html=1;" vertex="1" parent="1">
          <mxGeometry x="230" y="120" width="140" height="70" as="geometry" />
        </mxCell>
        <mxCell id="3bP-I4FCFR9JuNEKeRnN-3" value="Cancel" style="ellipse;whiteSpace=wrap;html=1;" vertex="1" parent="1">
          <mxGeometry x="235" y="270" width="140" height="70" as="geometry" />
        </mxCell>
        <mxCell id="3bP-I4FCFR9JuNEKeRnN-4" value="Make Reservation" style="ellipse;whiteSpace=wrap;html=1;" vertex="1" parent="1">
          <mxGeometry x="235" y="400" width="140" height="70" as="geometry" />
        </mxCell>
        <mxCell id="3bP-I4FCFR9JuNEKeRnN-5" value="Control Reservation" style="ellipse;whiteSpace=wrap;html=1;" vertex="1" parent="1">
          <mxGeometry x="520" y="270" width="140" height="70" as="geometry" />
        </mxCell>
        <mxCell id="3bP-I4FCFR9JuNEKeRnN-15" style="edgeStyle=none;curved=1;rounded=0;orthogonalLoop=1;jettySize=auto;html=1;exitX=0;exitY=0.3333333333333333;exitDx=0;exitDy=0;exitPerimeter=0;fontSize=12;startSize=8;endSize=8;" edge="1" parent="1" source="3bP-I4FCFR9JuNEKeRnN-6" target="3bP-I4FCFR9JuNEKeRnN-5">
          <mxGeometry relative="1" as="geometry" />
        </mxCell>
        <mxCell id="3bP-I4FCFR9JuNEKeRnN-6" value="Admin&lt;div&gt;&lt;br&gt;&lt;/div&gt;" style="shape=umlActor;verticalLabelPosition=bottom;verticalAlign=top;html=1;" vertex="1" parent="1">
          <mxGeometry x="770" y="310" width="30" height="60" as="geometry" />
        </mxCell>
        <mxCell id="3bP-I4FCFR9JuNEKeRnN-12" style="edgeStyle=none;curved=1;rounded=0;orthogonalLoop=1;jettySize=auto;html=1;exitX=1;exitY=0.3333333333333333;exitDx=0;exitDy=0;exitPerimeter=0;fontSize=12;startSize=8;endSize=8;" edge="1" parent="1" source="3bP-I4FCFR9JuNEKeRnN-9" target="3bP-I4FCFR9JuNEKeRnN-2">
          <mxGeometry relative="1" as="geometry" />
        </mxCell>
        <mxCell id="3bP-I4FCFR9JuNEKeRnN-14" style="edgeStyle=none;curved=1;rounded=0;orthogonalLoop=1;jettySize=auto;html=1;exitX=1;exitY=1;exitDx=0;exitDy=0;exitPerimeter=0;entryX=0;entryY=0.5;entryDx=0;entryDy=0;fontSize=12;startSize=8;endSize=8;" edge="1" parent="1" source="3bP-I4FCFR9JuNEKeRnN-9" target="3bP-I4FCFR9JuNEKeRnN-4">
          <mxGeometry relative="1" as="geometry" />
        </mxCell>
        <mxCell id="3bP-I4FCFR9JuNEKeRnN-32" style="edgeStyle=none;curved=1;rounded=0;orthogonalLoop=1;jettySize=auto;html=1;exitX=1;exitY=1;exitDx=0;exitDy=0;exitPerimeter=0;entryX=0;entryY=0.5;entryDx=0;entryDy=0;fontSize=12;startSize=8;endSize=8;" edge="1" parent="1" source="3bP-I4FCFR9JuNEKeRnN-9" target="3bP-I4FCFR9JuNEKeRnN-25">
          <mxGeometry relative="1" as="geometry" />
        </mxCell>
        <mxCell id="3bP-I4FCFR9JuNEKeRnN-9" value="Customer" style="shape=umlActor;verticalLabelPosition=bottom;verticalAlign=top;html=1;" vertex="1" parent="1">
          <mxGeometry x="20" y="410" width="30" height="60" as="geometry" />
        </mxCell>
        <mxCell id="3bP-I4FCFR9JuNEKeRnN-13" style="edgeStyle=none;curved=1;rounded=0;orthogonalLoop=1;jettySize=auto;html=1;exitX=0.5;exitY=0.5;exitDx=0;exitDy=0;exitPerimeter=0;entryX=0.026;entryY=0.624;entryDx=0;entryDy=0;entryPerimeter=0;fontSize=12;startSize=8;endSize=8;" edge="1" parent="1" source="3bP-I4FCFR9JuNEKeRnN-9" target="3bP-I4FCFR9JuNEKeRnN-3">
          <mxGeometry relative="1" as="geometry" />
        </mxCell>
        <mxCell id="3bP-I4FCFR9JuNEKeRnN-16" value="&lt;div&gt;Reservation&lt;/div&gt;" style="shape=umlFrame;whiteSpace=wrap;html=1;pointerEvents=0;" vertex="1" parent="1">
          <mxGeometry x="120" y="80" width="610" height="1000" as="geometry" />
        </mxCell>
        <mxCell id="3bP-I4FCFR9JuNEKeRnN-17" value="Extends" style="endArrow=block;endSize=16;endFill=0;html=1;rounded=0;fontSize=12;curved=1;entryX=1;entryY=0.5;entryDx=0;entryDy=0;exitX=0;exitY=0.5;exitDx=0;exitDy=0;" edge="1" parent="1" source="3bP-I4FCFR9JuNEKeRnN-18" target="3bP-I4FCFR9JuNEKeRnN-2">
          <mxGeometry width="160" relative="1" as="geometry">
            <mxPoint x="470" y="220" as="sourcePoint" />
            <mxPoint x="375.0025707550199" y="209.99875510761512" as="targetPoint" />
            <Array as="points" />
          </mxGeometry>
        </mxCell>
        <mxCell id="3bP-I4FCFR9JuNEKeRnN-18" value="Store Information" style="ellipse;whiteSpace=wrap;html=1;" vertex="1" parent="1">
          <mxGeometry x="460" y="130" width="140" height="70" as="geometry" />
        </mxCell>
        <mxCell id="3bP-I4FCFR9JuNEKeRnN-19" value="Control Reservation" style="ellipse;whiteSpace=wrap;html=1;" vertex="1" parent="1">
          <mxGeometry x="130" y="505" width="140" height="70" as="geometry" />
        </mxCell>
        <mxCell id="3bP-I4FCFR9JuNEKeRnN-20" value="Control Reservation" style="ellipse;whiteSpace=wrap;html=1;" vertex="1" parent="1">
          <mxGeometry x="355" y="505" width="140" height="70" as="geometry" />
        </mxCell>
        <mxCell id="3bP-I4FCFR9JuNEKeRnN-21" value="Control Reservation" style="ellipse;whiteSpace=wrap;html=1;" vertex="1" parent="1">
          <mxGeometry x="235" y="590" width="140" height="70" as="geometry" />
        </mxCell>
        <mxCell id="3bP-I4FCFR9JuNEKeRnN-22" value="Control Reservation" style="ellipse;whiteSpace=wrap;html=1;" vertex="1" parent="1">
          <mxGeometry x="130" y="700" width="140" height="70" as="geometry" />
        </mxCell>
        <mxCell id="3bP-I4FCFR9JuNEKeRnN-23" value="Control Reservation" style="ellipse;whiteSpace=wrap;html=1;" vertex="1" parent="1">
          <mxGeometry x="370" y="680" width="140" height="70" as="geometry" />
        </mxCell>
        <mxCell id="3bP-I4FCFR9JuNEKeRnN-24" value="Control Reservation" style="ellipse;whiteSpace=wrap;html=1;" vertex="1" parent="1">
          <mxGeometry x="235" y="790" width="140" height="70" as="geometry" />
        </mxCell>
        <mxCell id="3bP-I4FCFR9JuNEKeRnN-25" value="Control Reservation" style="ellipse;whiteSpace=wrap;html=1;" vertex="1" parent="1">
          <mxGeometry x="150" y="920" width="140" height="70" as="geometry" />
        </mxCell>
        <mxCell id="3bP-I4FCFR9JuNEKeRnN-26" value="Extends" style="endArrow=block;endSize=16;endFill=0;html=1;rounded=0;fontSize=12;curved=1;exitX=0.447;exitY=-0.053;exitDx=0;exitDy=0;exitPerimeter=0;" edge="1" parent="1" source="3bP-I4FCFR9JuNEKeRnN-20">
          <mxGeometry x="0.0756" y="20" width="160" relative="1" as="geometry">
            <mxPoint x="435" y="480" as="sourcePoint" />
            <mxPoint x="340.0025707550199" y="469.9987551076151" as="targetPoint" />
            <Array as="points">
              <mxPoint x="415" y="470" />
            </Array>
            <mxPoint x="1" as="offset" />
          </mxGeometry>
        </mxCell>
        <mxCell id="3bP-I4FCFR9JuNEKeRnN-27" value="Extends" style="endArrow=block;endSize=16;endFill=0;html=1;rounded=0;fontSize=12;curved=1;entryX=0.22;entryY=0.876;entryDx=0;entryDy=0;entryPerimeter=0;" edge="1" parent="1" target="3bP-I4FCFR9JuNEKeRnN-4">
          <mxGeometry width="160" relative="1" as="geometry">
            <mxPoint x="180" y="503.82" as="sourcePoint" />
            <mxPoint x="340" y="503.82" as="targetPoint" />
          </mxGeometry>
        </mxCell>
        <mxCell id="3bP-I4FCFR9JuNEKeRnN-28" value="Extends" style="endArrow=block;endSize=16;endFill=0;html=1;rounded=0;fontSize=12;curved=1;entryX=0.5;entryY=1;entryDx=0;entryDy=0;" edge="1" parent="1" target="3bP-I4FCFR9JuNEKeRnN-4">
          <mxGeometry width="160" relative="1" as="geometry">
            <mxPoint x="300" y="590" as="sourcePoint" />
            <mxPoint x="460" y="590" as="targetPoint" />
          </mxGeometry>
        </mxCell>
        <mxCell id="3bP-I4FCFR9JuNEKeRnN-29" value="Extends" style="endArrow=block;endSize=16;endFill=0;html=1;rounded=0;fontSize=12;curved=1;exitX=0.5;exitY=0;exitDx=0;exitDy=0;" edge="1" parent="1" source="3bP-I4FCFR9JuNEKeRnN-22" target="3bP-I4FCFR9JuNEKeRnN-21">
          <mxGeometry width="160" relative="1" as="geometry">
            <mxPoint x="197.5" y="700" as="sourcePoint" />
            <mxPoint x="202.5" y="580" as="targetPoint" />
          </mxGeometry>
        </mxCell>
        <mxCell id="3bP-I4FCFR9JuNEKeRnN-30" value="Extends" style="endArrow=block;endSize=16;endFill=0;html=1;rounded=0;fontSize=12;curved=1;entryX=0.951;entryY=0.666;entryDx=0;entryDy=0;entryPerimeter=0;exitX=0.209;exitY=0.136;exitDx=0;exitDy=0;exitPerimeter=0;" edge="1" parent="1" source="3bP-I4FCFR9JuNEKeRnN-23" target="3bP-I4FCFR9JuNEKeRnN-21">
          <mxGeometry width="160" relative="1" as="geometry">
            <mxPoint x="375" y="700" as="sourcePoint" />
            <mxPoint x="441.5" y="653" as="targetPoint" />
          </mxGeometry>
        </mxCell>
        <mxCell id="3bP-I4FCFR9JuNEKeRnN-33" value="Extends" style="endArrow=block;endSize=16;endFill=0;html=1;rounded=0;fontSize=12;curved=1;exitX=0.536;exitY=0;exitDx=0;exitDy=0;exitPerimeter=0;entryX=0.5;entryY=1;entryDx=0;entryDy=0;" edge="1" parent="1" source="3bP-I4FCFR9JuNEKeRnN-24" target="3bP-I4FCFR9JuNEKeRnN-21">
          <mxGeometry width="160" relative="1" as="geometry">
            <mxPoint x="310" y="780" as="sourcePoint" />
            <mxPoint x="470" y="780" as="targetPoint" />
          </mxGeometry>
        </mxCell>
      </root>
    </mxGraphModel>
  </diagram>
</mxfile>
